<svg width="2400" height="720" xmlns="http://www.w3.org/2000/svg" xmlns:xlink="http://www.w3.org/1999/xlink" overflow="hidden"><defs><clipPath id="clip0"><rect x="0" y="0" width="2400" height="720"/></clipPath><radialGradient cx="7485151" cy="2415403" r="8424053" fx="7485152" fy="2415403" gradientUnits="userSpaceOnUse" spreadMethod="pad" id="fill1" gradientTransform="matrix(0.000104987 0 0 0.000104987 88.543 122.386)"><stop offset="0" stop-color="#FF0000" stop-opacity="0.501961"/><stop offset="0.5" stop-color="#EC6A6A" stop-opacity="0.501961"/><stop offset="1" stop-color="#F6BCBC" stop-opacity="0.501961"/></radialGradient><radialGradient cx="7485151" cy="2415403" r="8424053" fx="7485152" fy="2415403" gradientUnits="userSpaceOnUse" spreadMethod="pad" id="fill2" gradientTransform="matrix(0.000104987 3.63798e-12 -3.63798e-12 0.000104987 88.543 122.386)"><stop offset="0" stop-color="#FF0000" stop-opacity="0.501961"/><stop offset="0.5" stop-color="#EC6A6A" stop-opacity="0.501961"/><stop offset="1" stop-color="#F6BCBC" stop-opacity="0.501961"/></radialGradient><radialGradient cx="7485151" cy="2415403" r="8424053" fx="7485152" fy="2415403" gradientUnits="userSpaceOnUse" spreadMethod="pad" id="fill3" gradientTransform="matrix(0.000104987 0 0 0.000104987 88.543 122.386)"><stop offset="0" stop-color="#FF0000" stop-opacity="0.501961"/><stop offset="0.5" stop-color="#EC6A6A" stop-opacity="0.501961"/><stop offset="1" stop-color="#F6BCBC" stop-opacity="0.501961"/></radialGradient><radialGradient cx="7485151" cy="2415403" r="8424053" fx="7485152" fy="2415403" gradientUnits="userSpaceOnUse" spreadMethod="pad" id="fill4" gradientTransform="matrix(0.000104987 7.27596e-12 -7.27596e-12 0.000104987 88.543 122.386)"><stop offset="0" stop-color="#FF0000" stop-opacity="0.501961"/><stop offset="0.5" stop-color="#EC6A6A" stop-opacity="0.501961"/><stop offset="1" stop-color="#F6BCBC" stop-opacity="0.501961"/></radialGradient><radialGradient cx="7485151" cy="2415403" r="8424053" fx="7485152" fy="2415403" gradientUnits="userSpaceOnUse" spreadMethod="pad" id="fill5" gradientTransform="matrix(0.000104987 0 0 0.000104987 88.5431 122.386)"><stop offset="0" stop-color="#FF0000" stop-opacity="0.501961"/><stop offset="0.5" stop-color="#EC6A6A" stop-opacity="0.501961"/><stop offset="1" stop-color="#F6BCBC" stop-opacity="0.501961"/></radialGradient><radialGradient cx="10204979" cy="2960059" r="10399723" fy="2960059" gradientUnits="userSpaceOnUse" spreadMethod="pad" id="fill6" gradientTransform="matrix(0.000104987 0 0 0.000104987 68.3665 66.2327)"><stop offset="0" stop-color="#FF0000" stop-opacity="0.501961"/><stop offset="0.5" stop-color="#EC6A6A" stop-opacity="0.501961"/><stop offset="1" stop-color="#F6BCBC" stop-opacity="0.501961"/></radialGradient><radialGradient cx="10204979" cy="2960059" r="10399723" fy="2960059" gradientUnits="userSpaceOnUse" spreadMethod="pad" id="fill7" gradientTransform="matrix(0.000104987 -1.81899e-12 1.81899e-12 0.000104987 68.3665 66.2327)"><stop offset="0" stop-color="#FF0000" stop-opacity="0.501961"/><stop offset="0.5" stop-color="#EC6A6A" stop-opacity="0.501961"/><stop offset="1" stop-color="#F6BCBC" stop-opacity="0.501961"/></radialGradient><radialGradient cx="10204979" cy="2960059" r="10399723" fy="2960059" gradientUnits="userSpaceOnUse" spreadMethod="pad" id="fill8" gradientTransform="matrix(0.000104987 -3.63798e-12 3.63798e-12 0.000104987 68.3665 66.2327)"><stop offset="0" stop-color="#FF0000" stop-opacity="0.501961"/><stop offset="0.5" stop-color="#EC6A6A" stop-opacity="0.501961"/><stop offset="1" stop-color="#F6BCBC" stop-opacity="0.501961"/></radialGradient><radialGradient cx="10204979" cy="2960059" r="10399723" fy="2960059" gradientUnits="userSpaceOnUse" spreadMethod="pad" id="fill9" gradientTransform="matrix(0.000104987 0 0 0.000104987 68.3666 66.2327)"><stop offset="0" stop-color="#FF0000" stop-opacity="0.501961"/><stop offset="0.5" stop-color="#EC6A6A" stop-opacity="0.501961"/><stop offset="1" stop-color="#F6BCBC" stop-opacity="0.501961"/></radialGradient><radialGradient cx="10204979" cy="2960059" r="10399723" fy="2960059" gradientUnits="userSpaceOnUse" spreadMethod="pad" id="fill10" gradientTransform="matrix(0.000104987 -3.63798e-12 3.63798e-12 0.000104987 68.3665 66.2326)"><stop offset="0" stop-color="#FF0000" stop-opacity="0.501961"/><stop offset="0.5" stop-color="#EC6A6A" stop-opacity="0.501961"/><stop offset="1" stop-color="#F6BCBC" stop-opacity="0.501961"/></radialGradient><radialGradient cx="5758594" cy="2676691" r="6440835" fy="2676692" gradientUnits="userSpaceOnUse" spreadMethod="pad" id="fill11" gradientTransform="matrix(0.000104987 0 0 0.000104987 -712.449 -69.4728)"><stop offset="0" stop-color="#FF0000" stop-opacity="0.501961"/><stop offset="0.5" stop-color="#EC6A6A" stop-opacity="0.501961"/><stop offset="1" stop-color="#F6BCBC" stop-opacity="0.501961"/></radialGradient><radialGradient cx="5758594" cy="2676691" r="6440835" fy="2676692" gradientUnits="userSpaceOnUse" spreadMethod="pad" id="fill12" gradientTransform="matrix(4.72597e-05 9.37484e-05 -9.37484e-05 4.72597e-05 355.571 -347.107)"><stop offset="0" stop-color="#FF0000" stop-opacity="0.501961"/><stop offset="0.5" stop-color="#EC6A6A" stop-opacity="0.501961"/><stop offset="1" stop-color="#F6BCBC" stop-opacity="0.501961"/></radialGradient><radialGradient cx="5758594" cy="2676691" r="6440835" fy="2676692" gradientUnits="userSpaceOnUse" spreadMethod="pad" id="fill13" gradientTransform="matrix(-2.30573e-05 0.000102424 -0.000102424 -2.30573e-05 467.781 72.8185)"><stop offset="0" stop-color="#FF0000" stop-opacity="0.501961"/><stop offset="0.5" stop-color="#EC6A6A" stop-opacity="0.501961"/><stop offset="1" stop-color="#F6BCBC" stop-opacity="0.501961"/></radialGradient><radialGradient cx="5758594" cy="2676691" r="6440835" fy="2676692" gradientUnits="userSpaceOnUse" spreadMethod="pad" id="fill14" gradientTransform="matrix(7.94365e-05 -6.86446e-05 6.86446e-05 7.94365e-05 -891.046 456.252)"><stop offset="0" stop-color="#FF0000" stop-opacity="0.501961"/><stop offset="0.5" stop-color="#EC6A6A" stop-opacity="0.501961"/><stop offset="1" stop-color="#F6BCBC" stop-opacity="0.501961"/></radialGradient><radialGradient cx="4858756" cy="3476900" r="6481028" fy="3476901" gradientUnits="userSpaceOnUse" spreadMethod="pad" id="fill15" gradientTransform="matrix(0.000104987 0 0 0.000104987 1188.57 -30.6004)"><stop offset="0" stop-color="#FF0000" stop-opacity="0.501961"/><stop offset="0.5" stop-color="#EC6A6A" stop-opacity="0.501961"/><stop offset="1" stop-color="#F6BCBC" stop-opacity="0.501961"/></radialGradient><radialGradient cx="4858756" cy="3476900" r="6481028" fy="3476901" gradientUnits="userSpaceOnUse" spreadMethod="pad" id="fill16" gradientTransform="matrix(0.000104987 0 0 0.000104987 1188.57 -30.6004)"><stop offset="0" stop-color="#FF0000" stop-opacity="0.501961"/><stop offset="0.5" stop-color="#EC6A6A" stop-opacity="0.501961"/><stop offset="1" stop-color="#F6BCBC" stop-opacity="0.501961"/></radialGradient><radialGradient cx="4858756" cy="3476900" r="6481028" fy="3476901" gradientUnits="userSpaceOnUse" spreadMethod="pad" id="fill17" gradientTransform="matrix(0.000104987 0 0 0.000104987 1188.57 -30.6004)"><stop offset="0" stop-color="#FF0000" stop-opacity="0.501961"/><stop offset="0.5" stop-color="#EC6A6A" stop-opacity="0.501961"/><stop offset="1" stop-color="#F6BCBC" stop-opacity="0.501961"/></radialGradient><radialGradient cx="4858756" cy="3476900" r="6481028" fy="3476901" gradientUnits="userSpaceOnUse" spreadMethod="pad" id="fill18" gradientTransform="matrix(0.000104987 3.63798e-12 -3.63798e-12 0.000104987 1188.57 -30.6004)"><stop offset="0" stop-color="#FF0000" stop-opacity="0.501961"/><stop offset="0.5" stop-color="#EC6A6A" stop-opacity="0.501961"/><stop offset="1" stop-color="#F6BCBC" stop-opacity="0.501961"/></radialGradient><linearGradient x1="0" y1="360" x2="651" y2="360" gradientUnits="userSpaceOnUse" spreadMethod="reflect" id="fill19"><stop offset="0" stop-color="#FFFFFF"/><stop offset="0.75" stop-color="#FFFFFF" stop-opacity="0"/><stop offset="1" stop-color="#FFFFFF" stop-opacity="0"/></linearGradient><linearGradient x1="0" y1="360" x2="650" y2="360" gradientUnits="userSpaceOnUse" spreadMethod="reflect" id="fill20"><stop offset="0" stop-color="#FFFFFF"/><stop offset="0.75" stop-color="#FFFFFF" stop-opacity="0"/><stop offset="1" stop-color="#FFFFFF" stop-opacity="0"/></linearGradient></defs><g clip-path="url(#clip0)"><rect x="0" y="0" width="2400" height="720" fill="#FFFFFF" fill-opacity="0.0117647"/><path d="M908 215C908 194.013 925.013 177 946 177 966.987 177 984 194.013 984 215 984 235.987 966.987 253 946 253 925.013 253 908 235.987 908 215Z" fill="url(#fill1)" fill-rule="evenodd"/><path d="M56.7713 431.584 645.321 61.1855 815.719 331.94 227.168 702.339Z" fill="url(#fill2)" fill-rule="evenodd"/><path d="M963.594 713.161 730.339 540.169 1008.69 457.36Z" fill="url(#fill3)" fill-rule="evenodd"/><path d="M977.387 38.7822 1210.86 240.537 1118.05 347.943 884.572 146.188Z" fill="url(#fill4)" fill-rule="evenodd"/><path d="M1616 644C1616 623.013 1633.01 606 1654 606 1674.99 606 1692 623.013 1692 644 1692 664.987 1674.99 682 1654 682 1633.01 682 1616 664.987 1616 644Z" fill="url(#fill5)" fill-rule="evenodd"/><path d="M638 161C638 108.533 680.533 66 733 66 785.467 66 828 108.533 828 161 828 213.467 785.467 256 733 256 680.533 256 638 213.467 638 161Z" fill="url(#fill6)" fill-rule="evenodd"/><path d="M331.866 463.123 702.019 395.666 733.052 565.95 362.899 633.407Z" fill="url(#fill7)" fill-rule="evenodd"/><path d="M227.017 401.581 93.1507 143.871 379.638 191.404Z" fill="url(#fill8)" fill-rule="evenodd"/><path d="M1787 593C1787 540.533 1829.76 498 1882.5 498 1935.24 498 1978 540.533 1978 593 1978 645.467 1935.24 688 1882.5 688 1829.76 688 1787 645.467 1787 593Z" fill="url(#fill9)" fill-rule="evenodd"/><path d="M1858.71 111.941 2186.36 296.892 2101.28 447.625 1773.62 262.673Z" fill="url(#fill10)" fill-rule="evenodd"/><path d="M0 38C-4.83791e-15 17.0132 17.0132-4.83791e-15 38-9.67581e-15 58.9868-1.93516e-14 76 17.0132 76 38 76 58.9868 58.9868 76 38 76 17.0132 76-2.41895e-14 58.9868 0 38Z" fill="url(#fill11)" fill-rule="evenodd" transform="matrix(-1 0 0 1 1100 167)"/><rect x="0" y="0" width="562.035" height="258.557" fill="url(#fill12)" transform="matrix(-0.450149 -0.892954 -0.892954 0.450149 1662.56 571.286)"/><path d="M0 259.745 129.873 0 259.745 259.745Z" fill="url(#fill13)" fill-rule="evenodd" transform="matrix(0.21962 -0.975585 -0.975585 -0.21962 1780.76 569.88)"/><rect x="0" y="0" width="308.568" height="141.953" fill="url(#fill14)" transform="matrix(-0.756633 0.65384 0.65384 0.756633 839.939 334.914)"/><path d="M2058.68 660.43 1970.31 467.408 2201.04 361.771 2289.41 554.793Z" fill="url(#fill15)" fill-rule="evenodd"/><path d="M2102 167C2102 114.533 2144.53 72 2197 72 2249.47 72 2292 114.533 2292 167 2292 219.467 2249.47 262 2197 262 2144.53 262 2102 219.467 2102 167Z" fill="url(#fill16)" fill-rule="evenodd"/><path d="M1105.35 580.025 1295.53 255.373 1444.88 342.859 1254.71 667.511Z" fill="url(#fill17)" fill-rule="evenodd"/><path d="M1655.17 282.506 1582.48 1.34644 1851.02 111.89Z" fill="url(#fill18)" fill-rule="evenodd"/><text fill="#0D0D0D" fill-opacity="0.678431" font-family="Roboto Mono,Roboto Mono_MSFontService,sans-serif" font-weight="700" font-size="265" transform="translate(483.75 474)">COMMUNITY</text><rect x="0" y="0" width="651" height="720" fill="url(#fill19)"/><rect x="0" y="0" width="650" height="720" fill="url(#fill20)" transform="matrix(-1 0 0 1 2403 -7)"/></g></svg>